{
	"asset":{
		"generator":"Khronos glTF Blender I/O v5.0.21",
		"version":"2.0"
	},
	"scene":0,
	"scenes":[
		{
			"name":"Scene",
			"nodes":[
				0,
				1,
				2
			]
		}
	],
	"nodes":[
		{
			"mesh":0,
			"name":"Circle.003"
		},
		{
			"mesh":1,
			"name":"Circle.002"
		},
		{
			"mesh":2,
			"name":"Circle.004"
		}
	],
	"materials":[
		{
			"doubleSided":true,
			"name":"Material.003",
			"normalTexture":{
				"index":0
			},
			"pbrMetallicRoughness":{
				"baseColorTexture":{
					"index":1
				},
				"metallicRoughnessTexture":{
					"index":2
				}
			}
		},
		{
			"doubleSided":true,
			"name":"Material.001",
			"normalTexture":{
				"index":3
			},
			"pbrMetallicRoughness":{
				"baseColorTexture":{
					"index":4
				},
				"metallicRoughnessTexture":{
					"index":5
				}
			}
		},
		{
			"doubleSided":true,
			"name":"Material.002",
			"normalTexture":{
				"index":6
			},
			"pbrMetallicRoughness":{
				"baseColorTexture":{
					"index":7
				},
				"metallicRoughnessTexture":{
					"index":8
				}
			}
		}
	],
	"meshes":[
		{
			"name":"Circle.005",
			"primitives":[
				{
					"attributes":{
						"POSITION":0,
						"NORMAL":1,
						"TEXCOORD_0":2
					},
					"indices":3,
					"material":0
				}
			]
		},
		{
			"name":"Circle.008",
			"primitives":[
				{
					"attributes":{
						"POSITION":4,
						"NORMAL":5,
						"TEXCOORD_0":6
					},
					"indices":7,
					"material":1
				}
			]
		},
		{
			"name":"Circle.009",
			"primitives":[
				{
					"attributes":{
						"POSITION":8,
						"NORMAL":9,
						"TEXCOORD_0":10
					},
					"indices":11,
					"material":2
				}
			]
		}
	],
	"textures":[
		{
			"sampler":0,
			"source":0
		},
		{
			"sampler":0,
			"source":1
		},
		{
			"sampler":0,
			"source":2
		},
		{
			"sampler":0,
			"source":0
		},
		{
			"sampler":0,
			"source":1
		},
		{
			"sampler":0,
			"source":2
		},
		{
			"sampler":0,
			"source":0
		},
		{
			"sampler":0,
			"source":1
		},
		{
			"sampler":0,
			"source":3
		}
	],
	"images":[
		{
			"mimeType":"image/png",
			"name":"firecyclone_normal",
			"uri":"firecyclone_normal.png"
		},
		{
			"mimeType":"image/png",
			"name":"firecyclone_albedo",
			"uri":"firecyclone_albedo.png"
		},
		{
			"mimeType":"image/png",
			"name":"firecyclone_metallic-firecyclone_roughness",
			"uri":"firecyclone_metallic-firecyclone_roughness.png"
		},
		{
			"mimeType":"image/png",
			"name":"firecyclone_roughness",
			"uri":"firecyclone_roughness.png"
		}
	],
	"accessors":[
		{
			"bufferView":0,
			"componentType":5126,
			"count":448,
			"max":[
				2.4320013523101807,
				1.148141622543335,
				2.4320013523101807
			],
			"min":[
				-2.4320013523101807,
				0.5814834237098694,
				-2.4320013523101807
			],
			"type":"VEC3"
		},
		{
			"bufferView":1,
			"componentType":5126,
			"count":448,
			"type":"VEC3"
		},
		{
			"bufferView":2,
			"componentType":5126,
			"count":448,
			"type":"VEC2"
		},
		{
			"bufferView":3,
			"componentType":5123,
			"count":1440,
			"type":"SCALAR"
		},
		{
			"bufferView":4,
			"componentType":5126,
			"count":482,
			"max":[
				1.369443655014038,
				1.4312269687652588,
				1.369443655014038
			],
			"min":[
				-1.369443655014038,
				-1.2950156927108765,
				-1.369443655014038
			],
			"type":"VEC3"
		},
		{
			"bufferView":5,
			"componentType":5126,
			"count":482,
			"type":"VEC3"
		},
		{
			"bufferView":6,
			"componentType":5126,
			"count":482,
			"type":"VEC2"
		},
		{
			"bufferView":7,
			"componentType":5123,
			"count":1380,
			"type":"SCALAR"
		},
		{
			"bufferView":8,
			"componentType":5126,
			"count":640,
			"max":[
				2.079791784286499,
				1.1904144287109375,
				2.079791784286499
			],
			"min":[
				-2.079791784286499,
				0.7484495043754578,
				-2.079791784286499
			],
			"type":"VEC3"
		},
		{
			"bufferView":9,
			"componentType":5126,
			"count":640,
			"type":"VEC3"
		},
		{
			"bufferView":10,
			"componentType":5126,
			"count":640,
			"type":"VEC2"
		},
		{
			"bufferView":11,
			"componentType":5123,
			"count":2100,
			"type":"SCALAR"
		}
	],
	"bufferViews":[
		{
			"buffer":0,
			"byteLength":5376,
			"byteOffset":0,
			"target":34962
		},
		{
			"buffer":0,
			"byteLength":5376,
			"byteOffset":5376,
			"target":34962
		},
		{
			"buffer":0,
			"byteLength":3584,
			"byteOffset":10752,
			"target":34962
		},
		{
			"buffer":0,
			"byteLength":2880,
			"byteOffset":14336,
			"target":34963
		},
		{
			"buffer":0,
			"byteLength":5784,
			"byteOffset":17216,
			"target":34962
		},
		{
			"buffer":0,
			"byteLength":5784,
			"byteOffset":23000,
			"target":34962
		},
		{
			"buffer":0,
			"byteLength":3856,
			"byteOffset":28784,
			"target":34962
		},
		{
			"buffer":0,
			"byteLength":2760,
			"byteOffset":32640,
			"target":34963
		},
		{
			"buffer":0,
			"byteLength":7680,
			"byteOffset":35400,
			"target":34962
		},
		{
			"buffer":0,
			"byteLength":7680,
			"byteOffset":43080,
			"target":34962
		},
		{
			"buffer":0,
			"byteLength":5120,
			"byteOffset":50760,
			"target":34962
		},
		{
			"buffer":0,
			"byteLength":4200,
			"byteOffset":55880,
			"target":34963
		}
	],
	"samplers":[
		{
			"magFilter":9729,
			"minFilter":9987
		}
	],
	"buffers":[
		{
			"byteLength":60080,
			"uri":"fire_cyclone.bin"
		}
	]
}
