{
	"asset":{
		"generator":"Khronos glTF Blender I/O v5.0.21",
		"version":"2.0"
	},
	"scene":0,
	"scenes":[
		{
			"name":"Scene",
			"nodes":[
				0,
				1,
				2
			]
		}
	],
	"nodes":[
		{
			"mesh":0,
			"name":"Circle.002"
		},
		{
			"mesh":1,
			"name":"Circle.001"
		},
		{
			"mesh":2,
			"name":"Circle.004"
		}
	],
	"materials":[
		{
			"doubleSided":true,
			"name":"MATERIAL",
			"normalTexture":{
				"index":0
			},
			"pbrMetallicRoughness":{
				"baseColorTexture":{
					"index":1
				}
			}
		}
	],
	"meshes":[
		{
			"name":"Circle.008",
			"primitives":[
				{
					"attributes":{
						"POSITION":0,
						"NORMAL":1,
						"TEXCOORD_0":2
					},
					"indices":3,
					"material":0
				}
			]
		},
		{
			"name":"Circle.002",
			"primitives":[
				{
					"attributes":{
						"POSITION":4,
						"NORMAL":5,
						"TEXCOORD_0":6
					},
					"indices":7,
					"material":0
				}
			]
		},
		{
			"name":"Circle.003",
			"primitives":[
				{
					"attributes":{
						"POSITION":8,
						"NORMAL":9,
						"TEXCOORD_0":10
					},
					"indices":11,
					"material":0
				}
			]
		}
	],
	"textures":[
		{
			"sampler":0,
			"source":0
		},
		{
			"sampler":0,
			"source":1
		}
	],
	"images":[
		{
			"mimeType":"image/png",
			"name":"swirlcyclone_normal",
			"uri":"../swirlcyclone_normal.png"
		},
		{
			"mimeType":"image/png",
			"name":"swirlcyclone_albedo.png",
			"uri":"../swirlcyclone_albedo.png"
		}
	],
	"accessors":[
		{
			"bufferView":0,
			"componentType":5126,
			"count":482,
			"max":[
				1.369443655014038,
				1.4312269687652588,
				1.369443655014038
			],
			"min":[
				-1.369443655014038,
				-1.2950156927108765,
				-1.369443655014038
			],
			"type":"VEC3"
		},
		{
			"bufferView":1,
			"componentType":5126,
			"count":482,
			"type":"VEC3"
		},
		{
			"bufferView":2,
			"componentType":5126,
			"count":482,
			"type":"VEC2"
		},
		{
			"bufferView":3,
			"componentType":5123,
			"count":1380,
			"type":"SCALAR"
		},
		{
			"bufferView":4,
			"componentType":5126,
			"count":82,
			"max":[
				2.066598653793335,
				1.1848299503326416,
				2.066598653793335
			],
			"min":[
				-2.066598653793335,
				0.7440347671508789,
				-2.066598653793335
			],
			"type":"VEC3"
		},
		{
			"bufferView":5,
			"componentType":5126,
			"count":82,
			"type":"VEC3"
		},
		{
			"bufferView":6,
			"componentType":5126,
			"count":82,
			"type":"VEC2"
		},
		{
			"bufferView":7,
			"componentType":5123,
			"count":384,
			"type":"SCALAR"
		},
		{
			"bufferView":8,
			"componentType":5126,
			"count":606,
			"max":[
				2.4993412494659424,
				1.171985387802124,
				2.4993412494659424
			],
			"min":[
				-2.4993412494659424,
				0.4364378750324249,
				-2.4993412494659424
			],
			"type":"VEC3"
		},
		{
			"bufferView":9,
			"componentType":5126,
			"count":606,
			"type":"VEC3"
		},
		{
			"bufferView":10,
			"componentType":5126,
			"count":606,
			"type":"VEC2"
		},
		{
			"bufferView":11,
			"componentType":5123,
			"count":1536,
			"type":"SCALAR"
		}
	],
	"bufferViews":[
		{
			"buffer":0,
			"byteLength":5784,
			"byteOffset":0,
			"target":34962
		},
		{
			"buffer":0,
			"byteLength":5784,
			"byteOffset":5784,
			"target":34962
		},
		{
			"buffer":0,
			"byteLength":3856,
			"byteOffset":11568,
			"target":34962
		},
		{
			"buffer":0,
			"byteLength":2760,
			"byteOffset":15424,
			"target":34963
		},
		{
			"buffer":0,
			"byteLength":984,
			"byteOffset":18184,
			"target":34962
		},
		{
			"buffer":0,
			"byteLength":984,
			"byteOffset":19168,
			"target":34962
		},
		{
			"buffer":0,
			"byteLength":656,
			"byteOffset":20152,
			"target":34962
		},
		{
			"buffer":0,
			"byteLength":768,
			"byteOffset":20808,
			"target":34963
		},
		{
			"buffer":0,
			"byteLength":7272,
			"byteOffset":21576,
			"target":34962
		},
		{
			"buffer":0,
			"byteLength":7272,
			"byteOffset":28848,
			"target":34962
		},
		{
			"buffer":0,
			"byteLength":4848,
			"byteOffset":36120,
			"target":34962
		},
		{
			"buffer":0,
			"byteLength":3072,
			"byteOffset":40968,
			"target":34963
		}
	],
	"samplers":[
		{
			"magFilter":9729,
			"minFilter":9987
		}
	],
	"buffers":[
		{
			"byteLength":44040,
			"uri":"c2_tex2.bin"
		}
	]
}
