{
	"asset":{
		"generator":"Khronos glTF Blender I/O v5.0.21",
		"version":"2.0"
	},
	"scene":0,
	"scenes":[
		{
			"name":"Scene",
			"nodes":[
				0
			]
		}
	],
	"nodes":[
		{
			"mesh":0,
			"name":"Sphere"
		}
	],
	"materials":[
		{
			"doubleSided":true,
			"name":"Material.001",
			"pbrMetallicRoughness":{
				"baseColorTexture":{
					"index":0
				},
				"metallicFactor":0,
				"roughnessFactor":0.5
			}
		}
	],
	"meshes":[
		{
			"name":"Sphere",
			"primitives":[
				{
					"attributes":{
						"POSITION":0,
						"NORMAL":1,
						"TEXCOORD_0":2
					},
					"indices":3,
					"material":0
				}
			]
		}
	],
	"textures":[
		{
			"sampler":0,
			"source":0
		}
	],
	"images":[
		{
			"mimeType":"image/png",
			"name":"bowl_albedo",
			"uri":"bowl_albedo.png"
		}
	],
	"accessors":[
		{
			"bufferView":0,
			"componentType":5126,
			"count":578,
			"max":[
				1.0503733158111572,
				-0.003932877443730831,
				1.0503729581832886
			],
			"min":[
				-1.0503727197647095,
				-0.48347970843315125,
				-1.0503735542297363
			],
			"type":"VEC3"
		},
		{
			"bufferView":1,
			"componentType":5126,
			"count":578,
			"type":"VEC3"
		},
		{
			"bufferView":2,
			"componentType":5126,
			"count":578,
			"type":"VEC2"
		},
		{
			"bufferView":3,
			"componentType":5123,
			"count":3072,
			"type":"SCALAR"
		}
	],
	"bufferViews":[
		{
			"buffer":0,
			"byteLength":6936,
			"byteOffset":0,
			"target":34962
		},
		{
			"buffer":0,
			"byteLength":6936,
			"byteOffset":6936,
			"target":34962
		},
		{
			"buffer":0,
			"byteLength":4624,
			"byteOffset":13872,
			"target":34962
		},
		{
			"buffer":0,
			"byteLength":6144,
			"byteOffset":18496,
			"target":34963
		}
	],
	"samplers":[
		{
			"magFilter":9729,
			"minFilter":9987
		}
	],
	"buffers":[
		{
			"byteLength":24640,
			"uri":"thebowl.bin"
		}
	]
}
